<svg version="1.2" xmlns="http://www.w3.org/2000/svg" viewBox="0 0 500 120" width="500" height="120"><style>.a{fill:none;stroke:#00efff;stroke-width:3}.b{fill:none;stroke:#00efff;stroke-linecap:round}.c{fill:#0ff;stroke:#00efff}.d{fill:#0ff;stroke:#0ff}.e{fill:none;stroke:#00efff}.f{fill:none;stroke:#00efff;stroke-width:2}</style><path fill-rule="evenodd" class="a" d="m20 67c-3.9 0-7-3.1-7-7 0-3.9 3.1-7 7-7 3.9 0 7 3.1 7 7 0 3.9-3.1 7-7 7z"/><path fill-rule="evenodd" class="b" d="m18.8 60h40.1"/><path fill-rule="evenodd" class="a" d="m70.7 17.8l327.9 0.9m81.4 40.9v32.4l-13.7 13.9h-168.8l-0.3-3.9h-227.2l-10-10v-32.5"/><path fill-rule="evenodd" class="a" d="m60 27.7v33.2"/><path fill-rule="evenodd" class="a" d="m480 27.7v33.2"/><path class="c" d="m59 66l-4.1 4.1v22.9 5l5.6 5.6h32.5l5.6-5.6h-32.6v-22l-6.1-6.1z"/><path class="d" d="m59 19l11.5-11.5h164.5l-7.3 5.8h70.3l-7.4 5.8z"/><path class="d" d="m415.2 16.8l-2.9 2.9h16.7l3.8-2.9z"/><path class="d" d="m439.2 16.8l-2.9 2.9h16.7l3.8-2.9z"/><path class="d" d="m463.2 16.8l-2.9 2.9h7.3l2.9-2.9z"/><path fill-rule="evenodd" class="e" d="m120 102l-20 10 189 2 8.5-7.4 0.1-4.5"/><path class="d" d="m309 13h88"/><path class="d" d="m390.1 17.2l8.9-10.2h79l-3.5 3.5h-67.5l-8 8.6z"/><path fill-rule="evenodd" class="f" d="m68 115c-1.7 0-3-1.3-3-3 0-1.7 1.3-3 3-3 1.7 0 3 1.3 3 3 0 1.7-1.3 3-3 3z"/><path fill-rule="evenodd" class="e" d="m102 112h-31"/><path fill-rule="evenodd" class="c" d="m20 62c-1.1 0-2-0.9-2-2 0-1.1 0.9-2 2-2 1.1 0 2 0.9 2 2 0 1.1-0.9 2-2 2z"/></svg>