<svg version="1.2" xmlns="http://www.w3.org/2000/svg" viewBox="0 0 1200 800" width="1200" height="800"><style>.a{fill:none;stroke:#00efff;stroke-linecap:round;stroke-linejoin:round;stroke-width:4.1}.b{fill:none;stroke:#00efff;stroke-linecap:round;stroke-linejoin:round;stroke-width:3.9}.c{fill:none;stroke:#00efff;stroke-linecap:round;stroke-linejoin:round;stroke-width:6.5}.d{fill:none;stroke:#00efff;stroke-miterlimit:100;stroke-width:6}.e{fill:none;stroke:#00efff;stroke-miterlimit:100;stroke-width:3}.f{fill:none;stroke:#00efff;stroke-miterlimit:100;stroke-width:4.1}</style><path fill-rule="evenodd" class="a" d="m70 410.7c-8.8 0-16-4.8-16-10.7 0-5.9 7.2-10.7 16-10.7 8.8 0 16 4.8 16 10.7 0 5.9-7.2 10.7-16 10.7z"/><path fill-rule="evenodd" class="b" d="m70 404c-3.3 0-6-1.8-6-4 0-2.2 2.7-4 6-4 3.3 0 6 1.8 6 4 0 2.2-2.7 4-6 4z"/><path fill-rule="evenodd" class="c" d="m90 400h80"/><path fill-rule="evenodd" class="b" d="m90 391.3h70"/><path fill-rule="evenodd" class="b" d="m90 408.7h70"/><path class="d" d="m190 326.7h830l20 12v121.3l-20 12h-750l-20 12h-20l-20-10.7v-130z"/><path fill-rule="evenodd" class="e" d="m300 326.7l36-14.7h160"/><path fill-rule="evenodd" class="f" d="m1027 380v40"/><path fill-rule="evenodd" class="f" d="m223 380v40"/><path fill-rule="evenodd" class="b" d="m245 336h760c5.5 0 10 3 10 6.7v113.3c0 3.7-4.5 6.7-10 6.7h-760c-5.5 0-10-3-10-6.7v-113.3c0-3.7 4.5-6.7 10-6.7z"/><path fill-rule="evenodd" class="b" d="m210 353.3h-26"/><path fill-rule="evenodd" class="b" d="m184 355.3c-1.7 0-3-0.9-3-2 0-1.1 1.3-2 3-2 1.7 0 3 0.9 3 2 0 1.1-1.3 2-3 2z"/><path fill-rule="evenodd" class="a" d="m230 484h-26l-18-9.3"/><path fill-rule="evenodd" class="b" d="m210 474.7h-22"/><path fill-rule="evenodd" class="b" d="m186 476.7c-1.7 0-3-0.9-3-2 0-1.1 1.3-2 3-2 1.7 0 3 0.9 3 2 0 1.1-1.3 2-3 2z"/><path fill-rule="evenodd" class="b" d="m520 322v-18.7"/><path fill-rule="evenodd" class="b" d="m540 322v-13.3"/><path fill-rule="evenodd" class="b" d="m560 322v-8"/><path fill-rule="evenodd" class="b" d="m520 476.7v18.6"/><path fill-rule="evenodd" class="b" d="m540 476.7v13.3"/><path fill-rule="evenodd" class="b" d="m560 476.7v8"/><path fill-rule="evenodd" class="e" d="m255 354.3l14-6.6h60"/><path fill-rule="evenodd" class="e" d="m255 443.3l14 6.7h60"/><path fill-rule="evenodd" class="e" d="m1001 354.3l-14-6.6h-60"/><path fill-rule="evenodd" class="e" d="m1001 443.3l-14 6.7h-60"/></svg>