<!DOCTYPE svg PUBLIC "-//W3C//DTD SVG 1.1//EN" "http://www.w3.org/Graphics/SVG/1.1/DTD/svg11.dtd">
<!-- Uploaded to: SVG Repo, www.svgrepo.com, Transformed by: SVG Repo Mixer Tools -->
<svg fill="#dbf8ff" width="800px" height="800px" viewBox="-4.32 -4.32 44.64 44.64" version="1.1" preserveAspectRatio="xMidYMid meet" xmlns="http://www.w3.org/2000/svg" xmlns:xlink="http://www.w3.org/1999/xlink" stroke="#dbf8ff" stroke-width="0.00036">
<g id="SVGRepo_bgCarrier" stroke-width="0" transform="translate(0,0), scale(1)">
<path transform="translate(-4.32, -4.32), scale(2.79)" fill="#4698b4" d="M9.166.33a2.25 2.25 0 00-2.332 0l-5.25 3.182A2.25 2.25 0 00.5 5.436v5.128a2.25 2.25 0 001.084 1.924l5.25 3.182a2.25 2.25 0 002.332 0l5.25-3.182a2.25 2.25 0 001.084-1.924V5.436a2.25 2.25 0 00-1.084-1.924L9.166.33z" strokewidth="0"/>
</g>
<g id="SVGRepo_tracerCarrier" stroke-linecap="round" stroke-linejoin="round" stroke="#CCCCCC" stroke-width="0.072"/>
<g id="SVGRepo_iconCarrier"> <title>cloud-traffic-line</title> <path d="M26.54,20.82a.88.88,0,0,0-.88-.88H20.75l1.1-1.1A.88.88,0,0,0,20.6,17.6l-3.21,3.22L20.6,24a.88.88,0,1,0,1.25-1.24L20.76,21.7h4.9A.88.88,0,0,0,26.54,20.82Z" class="clr-i-outline clr-i-outline-path-1"/>
<path d="M29.27,21.7a.88.88,0,1,0,0-1.76h-.58a.88.88,0,1,0,0,1.76Z" class="clr-i-outline clr-i-outline-path-2"/>
<path d="M32.21,20h-.06a.85.85,0,0,0-.85.88.91.91,0,0,0,.91.88.88.88,0,1,0,0-1.76Z" class="clr-i-outline clr-i-outline-path-3"/>
<path d="M32.59,11a.88.88,0,0,0-1.25,1.24l1.1,1.1H27.53a.88.88,0,1,0,0,1.76h4.9l-1.09,1.09a.88.88,0,0,0,1.25,1.24l3.21-3.22Z" class="clr-i-outline clr-i-outline-path-4"/>
<path d="M24.5,15.07a.88.88,0,1,0,0-1.76h-.58a.88.88,0,1,0,0,1.76Z" class="clr-i-outline clr-i-outline-path-5"/>
<path d="M21.9,14.27a.85.85,0,0,0-.85-.88H21a.88.88,0,1,0,0,1.76A.91.91,0,0,0,21.9,14.27Z" class="clr-i-outline clr-i-outline-path-6"/>
<path d="M30.36,23.65c0,.13,0,.26,0,.39a3.77,3.77,0,0,1-3.62,3.89H7.28a5.32,5.32,0,0,1-5.13-5.48A5.32,5.32,0,0,1,7.28,17H8.91L9,16.12a8.92,8.92,0,0,1,8.62-8h.08a8.49,8.49,0,0,1,6.56,3.29h2.37a10.55,10.55,0,0,0-8.91-5.25h-.11A10.82,10.82,0,0,0,7.22,15a7.28,7.28,0,0,0-7,7.43,7.27,7.27,0,0,0,7.08,7.43H26.77A5.72,5.72,0,0,0,32.35,24a3.77,3.77,0,0,0,0-.39Z" class="clr-i-outline clr-i-outline-path-7"/> <rect x="0" y="0" width="36" height="36" fill-opacity="0"/> </g>
</svg>