<svg version="1.2" xmlns="http://www.w3.org/2000/svg" viewBox="0 0 168 205" width="168" height="205"><style>.a{fill:#5e5e5e}.b{fill:#ff9100}.c{fill:#ffc400}.d{fill:#dd2c00}</style><path class="a" d="m707.4 161.4q-10.9 0-19.6-5-8.7-5.1-13.6-14-4.9-9.1-4.9-20.2 0-10.7 4.6-19.6 4.8-9.1 13.3-14.3 8.4-5.4 19.3-5.4 11.1 0 19.3 5 8.3 4.9 12.7 13.6 4.3 8.6 4.3 19.9 0 1.4-0.2 2.7-0.1 1.4-0.1 1.5h-56.8q0.7 10.1 7.3 15.6 6.5 5.5 14.8 5.5 12.8 0 19.7-11.9l13.9 6.7q-4.9 9.1-13.6 14.6-8.7 5.3-20.4 5.3zm18.7-48.3q-0.3-3.5-2.4-7.3-2-3.7-6.5-6.2-4.3-2.7-10.8-2.7-7.3 0-12.7 4.5-5.2 4.4-7.1 11.7z"/><path class="a" d="m633.4 161.4q-12.6 0-20.9-5.8-8.2-5.9-11.6-14.8l14.6-6.3q2.5 6.1 7.2 9.2 5 3.2 10.7 3.2 6.1 0 10-2.3 3.9-2.3 3.9-6.1 0-3.5-3.1-5.8-3.2-2.3-10.3-4.1l-10.1-2.4q-8.3-1.9-14.4-7.1-6-5.4-6-13.9 0-10.2 8.5-16.2 8.5-6.1 20.8-6.1 10.3 0 18.1 4.4 8.1 4.3 11.6 12.4l-14.4 6.1q-2.1-4.6-6.4-6.8-4.3-2.2-9.3-2.2-4.9 0-8.7 2.2-3.7 2.1-3.7 5.6 0 3.2 2.5 5.1 2.7 1.9 8.4 3.3l11 2.6q11.1 2.9 16.6 8.7 5.5 5.6 5.5 13.6 0 6.6-4 11.9-3.9 5.4-10.8 8.5-6.9 3.1-15.7 3.1z"/><path class="a" d="m555.2 161.4q-7.9 0-14.2-3.1-6.3-3.3-10-8.9-3.6-5.8-3.6-13.1 0-11.6 8.6-18.3 8.8-6.7 22.2-6.7 11.7 0 20.1 4.1v-3.2q0-6.7-5.4-11-5.2-4.4-12.6-4.4-11.3 0-18.2 9.2l-12.4-8.6q5.2-7 12.9-10.7 7.9-3.8 17.7-3.8 16.2 0 24.9 8.2 9 8 9 22.8v45.2h-15.9v-9.1h-0.9q-3.6 5-9.1 8.3-5.5 3.1-13.1 3.1zm2.7-13.5q5.5 0 10.1-2.7 4.8-2.8 7.4-7.3 2.9-4.6 2.9-9.8-7.9-4.3-16.8-4.3-8.2 0-12.8 3.6-4.6 3.6-4.6 9.1 0 5 4 8.3 4.2 3.1 9.8 3.1z"/><path class="a" d="m486.6 161.4q-8 0-14.4-3.4-6.2-3.4-9.4-8.6h-0.9v9.7h-15.4v-106.5h16.3v32l-0.9 10.2h0.9q3.2-5 9.4-8.4 6.4-3.5 14.4-3.5 9.5 0 17.6 5.1 8.1 5.1 12.9 14.1 4.9 8.9 4.9 20.1 0 11.1-4.9 20.1-4.8 8.9-12.9 14.1-8.1 5-17.6 5zm-2.8-15q5.8 0 10.7-3 5-2.9 8-8.4 3.1-5.7 3.1-12.8 0-7.1-3.1-12.6-3-5.7-8-8.7-4.9-2.9-10.7-2.9-5.8 0-10.9 2.9-4.9 3-8 8.5-3 5.5-3 12.8 0 7.3 3 12.8 3.1 5.5 8 8.4 5.1 3 10.9 3z"/><path class="a" d="m401.4 161.4q-10.9 0-19.7-5-8.6-5.1-13.5-14-4.9-9.1-4.9-20.2 0-10.7 4.6-19.6 4.8-9.1 13.2-14.3 8.5-5.4 19.4-5.4 11.1 0 19.3 5 8.3 4.9 12.6 13.6 4.3 8.6 4.3 19.9 0 1.4-0.1 2.7-0.2 1.4-0.2 1.5h-56.7q0.7 10.1 7.2 15.6 6.6 5.5 14.9 5.5 12.8 0 19.6-11.9l14 6.7q-4.9 9.1-13.7 14.6-8.6 5.3-20.3 5.3zm18.7-48.3q-0.3-3.5-2.4-7.3-2.1-3.7-6.5-6.2-4.3-2.7-10.9-2.7-7.3 0-12.6 4.5-5.2 4.4-7.1 11.7z"/><path class="a" d="m317.9 85.3h15.5v11h0.9q2.4-5.6 8.6-9.3 6.2-3.9 12.8-3.9 5.3 0 8.8 1.5v17.1q-5.1-2.6-11.3-2.6-8.1 0-13.6 6.3-5.3 6.1-5.3 15v38.7h-16.4z"/><path class="a" d="m294.6 72.8q-4.6 0-7.9-3.1-3.1-3.3-3.1-7.9 0-4.6 3.1-7.7 3.3-3.3 7.9-3.3 4.6 0 7.7 3.3 3.3 3.1 3.3 7.7 0 4.6-3.3 7.9-3.1 3.1-7.7 3.1zm-8.2 12.5h16.4v73.8h-16.4z"/><path class="a" d="m211.9 52.6h64.7v15.9h-48v30.6h43.2v15.8h-43.2v44.2h-16.7z"/><path class="b" d="m51.2 191.1c8.2 3.3 17.1 5.3 26.4 5.6 12.6 0.4 24.6-2.2 35.3-7.1-12.9-5.1-24.5-12.5-34.4-21.6-6.5 10.3-16 18.4-27.3 23.1z"/><path class="c" d="m78.5 168c-22.7-21-36.5-51.4-35.3-84.6q0.1-1.7 0.2-3.3c-4.1-1-8.3-1.7-12.7-1.8-6.2-0.2-12.3 0.5-18 2.1-6 10.6-9.7 22.8-10.1 35.8-1.2 33.7 19.1 63 48.6 74.9 11.3-4.7 20.8-12.8 27.3-23.1z"/><path class="b" d="m78.5 168c5.2-8.5 8.4-18.4 8.8-29 1-28-17.9-52.2-43.9-58.9q-0.1 1.6-0.2 3.3c-1.2 33.2 12.6 63.6 35.3 84.6z"/><path class="d" d="m84.4 1.3c-14.9 11.9-26.6 27.6-33.7 45.7-4 10.3-6.6 21.5-7.3 33.1 26 6.7 44.9 30.9 43.9 58.9-0.4 10.6-3.6 20.5-8.8 29 9.9 9.1 21.5 16.5 34.4 21.6 25.8-12 44.1-37.6 45.1-67.9 0.7-19.7-6.8-37.2-17.5-52-11.3-15.7-56.1-68.4-56.1-68.4z"/></svg>