<?xml version="1.0" encoding="UTF-8"?>
<svg version="1.1" xmlns="http://www.w3.org/2000/svg" width="512" height="512">
<path d="M0 0 C3.10550308 1.48441172 5.23356746 2.98888317 7.66699219 5.43994141 C8.71762848 6.49080429 8.71762848 6.49080429 9.78948975 7.56289673 C10.53442688 8.31815643 11.27936401 9.07341614 12.046875 9.8515625 C12.81807678 10.62559418 13.58927856 11.39962585 14.3838501 12.19711304 C16.84396856 14.66841923 19.29703848 17.14659183 21.75 19.625 C23.41750894 21.30254052 25.08547232 22.97962945 26.75390625 24.65625 C30.8412237 28.76560919 34.92277696 32.88062647 39 37 C37.3255737 41.36769886 34.06484147 44.20122277 30.80615234 47.42089844 C30.1718782 48.05546463 29.53760406 48.69003082 28.8841095 49.34382629 C26.78942522 51.43711882 24.68774898 53.5232408 22.5859375 55.609375 C21.1310443 57.06053753 19.67659244 58.51214267 18.2225647 59.96417236 C14.39649074 63.78261418 10.56444838 67.59501149 6.73114014 71.40618896 C2.81974796 75.29711379 -1.08598085 79.19371428 -4.9921875 83.08984375 C-12.65592027 90.73213399 -20.32596905 98.36805174 -28 106 C-26.6288234 109.07302452 -25.06873766 111.18039227 -22.6928997 113.55319595 C-22.00617207 114.24390568 -21.31944444 114.93461541 -20.61190689 115.64625573 C-19.8551067 116.39723023 -19.09830652 117.14820473 -18.318573 117.92193604 C-17.11544533 119.12762698 -17.11544533 119.12762698 -15.88801205 120.35767531 C-13.19033033 123.05865988 -10.48554638 125.75241883 -7.78076172 128.44628906 C-5.84847052 130.37690353 -3.91768926 132.3090255 -1.98684692 134.24108887 C2.17545848 138.40444325 6.3414117 142.56411849 10.50986099 146.72132111 C16.53674063 152.7319505 22.55809371 158.7480913 28.57810985 164.76559398 C38.34520334 174.52830962 48.11675533 184.28655007 57.89111328 194.04199219 C67.3862937 203.51881613 76.87937243 212.99773722 86.36962891 222.47949219 C87.24701744 223.35609255 87.24701744 223.35609255 88.14213099 224.250402 C91.07650207 227.18216302 94.01083184 230.11396537 96.94514108 233.04578829 C121.29035984 257.37027176 145.64281503 281.68749897 170 306 C173.9277332 302.68452371 177.77574961 299.34938361 181.41038513 295.70986938 C182.21093826 294.91069092 183.01149139 294.11151245 183.83630371 293.28811646 C184.6901062 292.43071869 185.54390869 291.57332092 186.42358398 290.68994141 C187.80037071 289.31337372 187.80037071 289.31337372 189.20497131 287.90899658 C191.70258812 285.41166478 194.197126 282.91127842 196.69109225 280.41030169 C199.30511998 277.78999074 201.92201063 275.17254206 204.53858948 272.55477905 C209.48443695 267.60583285 214.4277314 262.65434478 219.37009722 257.70192182 C225.00057054 252.06024193 230.6339092 246.42142683 236.26748168 240.78284192 C247.84816263 229.19172962 259.42526815 217.59705307 271 206 C278.36475888 212.2376417 278.36475888 212.2376417 281.64038086 215.52685547 C282.26049545 216.14704559 282.88061005 216.76723572 283.51951599 217.40621948 C284.16147415 218.05333893 284.80343231 218.70045837 285.46484375 219.3671875 C286.14301651 220.04677521 286.82118927 220.72636292 287.51991272 221.42654419 C289.66149141 223.57367002 291.79954529 225.72426627 293.9375 227.875 C295.39885589 229.34137773 296.86044226 230.8075258 298.32226562 232.2734375 C301.88417935 235.84631 305.44293865 239.42229684 309 243 C307.49844472 246.50308932 305.48188875 248.77382639 302.8026123 251.46481323 C301.48231522 252.79790527 301.48231522 252.79790527 300.13534546 254.15792847 C299.15739581 255.1351791 298.17933417 256.11231768 297.20117188 257.08935547 C296.17237957 258.12413375 295.14399825 259.15932078 294.11599731 260.19488525 C291.32290218 263.00564817 288.52334777 265.80989072 285.72204399 268.61247015 C283.96968434 270.3662524 282.21875705 272.12145154 280.46833801 273.87717056 C274.35407553 280.00994135 268.23466165 286.13751721 262.11035156 292.26025391 C256.41523563 297.95417073 250.7313419 303.65911955 245.05266523 309.36942756 C240.16796594 314.28035636 235.27550658 319.18346327 230.37703753 324.08065712 C227.45565696 327.00152968 224.53741111 329.92536819 221.62693787 332.85711288 C218.88450569 335.619038 216.13246028 338.37102218 213.37304306 341.11597443 C212.36751202 342.11942938 211.36531666 343.1262411 210.36693192 344.13680649 C198.72939079 355.9069606 186.80952232 363.32664213 170 363.5 C153.24645535 363.32721943 141.25823774 355.89482458 129.67559814 344.18353271 C128.79332353 343.30749807 127.91104892 342.43146342 127.00203872 341.52888227 C124.57755294 339.1175079 122.16224051 336.69758945 119.75055528 334.27345395 C117.13883456 331.65263272 114.51556763 329.04341021 111.89381409 326.43263245 C106.76851508 321.32507011 101.65402815 316.20681341 96.54340395 311.08457175 C92.38771596 306.91983057 88.2281163 302.75903392 84.06572723 298.6009903 C83.4721118 298.0079878 82.87849637 297.4149853 82.2668926 296.80401303 C81.06075623 295.59915563 79.85461092 294.39430718 78.64845678 293.18946758 C67.35298253 281.90538491 56.0697752 270.6091004 44.79076001 259.30856934 C35.12378122 249.62372088 25.44636333 239.9494075 15.76123047 230.28271484 C4.49965918 219.04257539 -6.75536154 207.79594234 -18.00008702 196.5389483 C-19.20037976 195.33738144 -20.40068082 194.1358229 -21.6009903 192.93427277 C-22.19147985 192.34316611 -22.78196941 191.75205945 -23.39035259 191.14304046 C-27.54127065 186.98867644 -31.69679611 182.83895611 -35.85414886 178.69103241 C-40.92414255 173.63228579 -45.98688875 168.56641561 -51.04062882 163.49142948 C-53.61666282 160.9049215 -56.19572028 158.3216432 -58.78363609 155.74701881 C-61.59455519 152.95031813 -64.3896791 150.13815599 -67.18353271 147.32440186 C-68.40191617 146.11940273 -68.40191617 146.11940273 -69.64491343 144.89006019 C-80.29979242 134.08791798 -86.34286979 122.23601889 -86.5 107 C-86.34884469 92.34333365 -80.76818979 80.35826855 -70.43041992 69.93273926 C-69.74133545 69.25803589 -69.05225098 68.58333252 -68.34228516 67.88818359 C-67.60013763 67.14545197 -66.85799011 66.40272034 -66.09335327 65.63748169 C-63.66796038 63.21484813 -61.22876888 60.80664853 -58.7890625 58.3984375 C-57.09282433 56.70966932 -55.3974743 55.02000864 -53.70297241 53.32949829 C-49.26322417 48.90494642 -44.81159207 44.49254491 -40.3572998 40.0826416 C-35.80512019 35.57154407 -31.26438957 31.04895406 -26.72265625 26.52734375 C-17.82621724 17.67366975 -8.9175534 8.83240435 0 0 Z " fill="#D84344" transform="translate(86,149)"/>
<path d="M0 0 C1.12512952 0.95984263 2.24961787 1.92043689 3.37383366 2.88134956 C4.31323546 3.68362533 4.31323546 3.68362533 5.27161509 4.50210869 C7.13131549 6.11380355 8.90394218 7.78321165 10.64038086 9.52685547 C11.26049545 10.14704559 11.88061005 10.76723572 12.51951599 11.40621948 C13.16147415 12.05333893 13.80343231 12.70045837 14.46484375 13.3671875 C15.14301651 14.04677521 15.82118927 14.72636292 16.51991272 15.42654419 C18.66149141 17.57367002 20.79954529 19.72426627 22.9375 21.875 C24.39885589 23.34137773 25.86044226 24.8075258 27.32226562 26.2734375 C30.88417935 29.84631 34.44293865 33.42229684 38 37 C36.62186776 40.09213766 35.04028243 42.21205047 32.65557003 44.60449219 C31.96045911 45.3066687 31.26534819 46.00884521 30.5491733 46.7322998 C29.39983595 47.87801453 29.39983595 47.87801453 28.22727966 49.046875 C27.41521043 49.86418091 26.6031412 50.68148682 25.76646382 51.52355957 C23.51167048 53.79076914 21.25243068 56.05343599 18.99120224 58.31422424 C16.55327441 60.75380024 14.12106997 63.19907131 11.68806458 65.64355469 C6.36675659 70.98771299 1.03799365 76.32439644 -4.29222226 81.65966797 C-7.62125762 84.99196068 -10.94865739 88.3258832 -14.27570915 91.66015625 C-23.48991408 100.89392808 -32.70569809 110.12611547 -41.92823887 119.3515625 C-42.51842682 119.94193802 -43.10861477 120.53231354 -43.7166872 121.14057922 C-44.913125 122.33738327 -46.10956407 123.53418604 -47.30600441 124.73098755 C-47.89990821 125.32507416 -48.49381201 125.91916077 -49.10571289 126.53125 C-49.99765963 127.42346756 -49.99765963 127.42346756 -50.90762549 128.33370972 C-60.53965605 137.96928092 -70.15989344 147.61653347 -79.77497745 157.26901245 C-89.64988186 167.1820139 -99.53413247 177.08561369 -109.42795318 186.97973633 C-114.98149602 192.53386346 -120.5310273 198.09186878 -126.07037544 203.66015625 C-130.78795993 208.40227338 -135.51409402 213.1356589 -140.25147224 217.85800552 C-142.66702554 220.26639738 -145.07841001 222.67859882 -147.47898483 225.10192871 C-150.08736945 227.73072603 -152.71073633 230.34361279 -155.33839417 232.953125 C-156.08900401 233.71693481 -156.83961386 234.48074463 -157.61296946 235.2677002 C-164.08714254 241.64033034 -170.63701357 245.57335238 -179.9375 245.5625 C-181.03964844 245.58441406 -182.14179688 245.60632813 -183.27734375 245.62890625 C-192.1900746 244.12318782 -198.67963951 239.05914112 -204.83642578 232.73120117 C-205.5498967 232.01846039 -206.26336761 231.3057196 -206.99845886 230.57138062 C-209.32614597 228.24024292 -211.63566989 225.89197374 -213.9453125 223.54296875 C-215.56659998 221.91234426 -217.18900355 220.28282878 -218.81246948 218.65437317 C-223.06172461 214.38611875 -227.29574226 210.10305991 -231.52667236 205.81665039 C-235.85496405 201.43701419 -240.19762227 197.07167386 -244.5390625 192.70507812 C-253.0400949 184.15058276 -261.52508488 175.58036496 -270 167 C-268.51558828 163.89449692 -267.01111683 161.76643254 -264.56005859 159.33300781 C-263.85948334 158.63258362 -263.15890808 157.93215942 -262.43710327 157.21051025 C-261.68184357 156.46557312 -260.92658386 155.72063599 -260.1484375 154.953125 C-259.37440582 154.18192322 -258.60037415 153.41072144 -257.80288696 152.6161499 C-255.33158077 150.15603144 -252.85340817 147.70296152 -250.375 145.25 C-248.69745948 143.58249106 -247.02037055 141.91452768 -245.34375 140.24609375 C-241.23439081 136.1587763 -237.11937353 132.07722304 -233 128 C-226.79652613 133.12541978 -221.14315324 138.7276906 -215.47265625 144.4296875 C-214.47396983 145.43024286 -213.47505953 146.43057481 -212.47593689 147.43069458 C-209.86808036 150.0423388 -207.26324305 152.65697367 -204.65905762 155.27227783 C-201.99264764 157.94898323 -199.32334536 160.62280102 -196.65429688 163.296875 C-191.43338899 168.52845398 -186.21567249 173.76320096 -181 179 C-178.07773761 177.67938625 -176.00547445 176.25477399 -173.74353409 173.98962975 C-173.11900888 173.36908663 -172.49448367 172.74854352 -171.85103345 172.10919607 C-171.17398697 171.4263239 -170.49694048 170.74345174 -169.79937744 170.03988647 C-169.07317097 169.31538886 -168.34696451 168.59089124 -167.59875178 167.84443915 C-165.16033687 165.40932521 -162.72915092 162.96711921 -160.29785156 160.52490234 C-158.55387087 158.78035767 -156.80944999 157.03625296 -155.06462097 155.29255676 C-151.30589827 151.53428988 -147.55026605 147.77297535 -143.79740143 144.00886154 C-138.37138644 138.56659272 -132.93985746 133.12985468 -127.50696668 127.69445081 C-118.692622 118.87572884 -109.88275293 110.05254977 -101.07568359 101.2265625 C-92.52040991 92.65293088 -83.96303823 84.08140227 -75.40283203 75.51269531 C-74.87518471 74.98452254 -74.34753738 74.45634977 -73.80390075 73.91217177 C-71.15683709 71.26249804 -68.50973209 68.61286562 -65.86260653 65.96325374 C-43.90198986 43.98190353 -21.94870547 21.99324403 0 0 Z " fill="#282528" transform="translate(436,73)"/>
<path d="M0 0 C4.1417915 2.79654749 7.56682566 6.16326942 11.07503319 9.70355606 C12.25006149 10.86566101 12.25006149 10.86566101 13.44882774 12.05124283 C16.00670804 14.58662034 18.54978466 17.13624492 21.09187889 19.68744278 C22.87309144 21.46341674 24.65482267 23.23887063 26.43704796 25.01382828 C30.15443127 28.72083939 33.86447828 32.43504385 37.56917381 36.15472794 C41.85242365 40.45498166 46.1519477 44.73845565 50.45976037 49.01409161 C54.61433257 53.13880545 58.7548961 57.2773311 62.88986206 61.42169189 C64.6479949 63.18064672 66.40999899 64.93574068 68.17586899 66.6869278 C70.63227553 69.12601218 73.07231183 71.58036324 75.50862694 74.03949356 C76.24457085 74.76374527 76.98051476 75.48799698 77.73875999 76.23419571 C78.39606606 76.90415573 79.05337212 77.57411575 79.73059654 78.26437759 C80.30847766 78.84284502 80.88635878 79.42131245 81.48175144 80.01730919 C82.58016014 81.74213028 82.58016014 81.74213028 82.34881973 83.84638023 C81.37459738 86.24911104 80.09661383 87.58606857 78.25374413 89.40912247 C77.55309334 90.10954666 76.85244255 90.80997086 76.13055992 91.53162003 C75.37013893 92.27655716 74.60971794 93.02149429 73.82625389 93.78900528 C73.05080727 94.56020706 72.27536064 95.33140884 71.47641563 96.12598038 C68.99711073 98.58848738 66.50758023 101.04036162 64.01766014 103.49213028 C62.33533574 105.15940937 60.65368647 106.82736997 58.97273827 108.49603653 C54.8496814 112.5860093 50.71817956 116.66729949 46.58016014 120.74213028 C43.71659917 119.44218332 41.65789833 118.06834954 39.44167137 115.84415054 C38.84718193 115.25241043 38.25269249 114.66067032 37.64018822 114.05099869 C37.00001762 113.40363754 36.35984703 112.7562764 35.70027733 112.08929825 C35.01694328 111.40625626 34.33360924 110.72321426 33.6295681 110.01947403 C31.37395038 107.7624639 29.12549792 105.49845398 26.87703514 103.23431778 C25.31377122 101.66732342 23.75006491 100.10077029 22.18593407 98.53464127 C18.07157569 94.41264886 13.96325894 90.28468543 9.85616112 86.15546036 C5.66361848 81.94245444 1.46540426 77.7351087 -2.73233986 73.52728653 C-10.96707514 65.27110538 -19.19544051 57.00860671 -27.41983986 48.74213028 C-33.14119824 53.49014566 -38.37737218 58.59338019 -43.59635353 63.88446426 C-44.96532736 65.26554108 -46.3343051 66.64661403 -47.70343077 68.02754033 C-49.16173074 69.49919976 -50.61882901 70.97204076 -52.07571411 72.44510078 C-55.1182847 75.52047351 -58.16697015 78.58973502 -61.21703529 81.65767288 C-62.26378744 82.71068461 -63.31053941 83.76369651 -64.35729122 84.81670856 C-64.88105205 85.34358552 -65.40481288 85.87046248 -65.94444525 86.4133054 C-73.03614049 93.54794843 -80.12313533 100.68716792 -87.19596291 107.84051895 C-91.98041565 112.67934667 -96.77361906 117.50931368 -101.57714635 122.32920891 C-104.1158306 124.87727971 -106.64969591 127.42977089 -109.17285156 129.99322701 C-111.97906748 132.844149 -114.80424977 135.67550426 -117.63150978 138.50555801 C-118.46639931 139.35999496 -119.30128883 140.21443192 -120.16147804 141.09476089 C-120.93096275 141.85881744 -121.70044746 142.62287399 -122.49324989 143.41008377 C-123.49174099 144.41743655 -123.49174099 144.41743655 -124.51040363 145.44513988 C-126.41983986 146.74213028 -126.41983986 146.74213028 -128.5497694 146.54331779 C-130.94816202 145.51578313 -132.34304895 144.17888729 -134.17862892 142.32391739 C-134.89907387 141.60324585 -135.61951881 140.88257431 -136.36179543 140.14006424 C-137.12860634 139.35776947 -137.89541725 138.5754747 -138.68546486 137.76947403 C-139.47886269 136.97183136 -140.27226051 136.17418869 -141.0897007 135.35237503 C-143.62353384 132.80174181 -146.14674091 130.24087802 -148.66983986 127.67963028 C-150.38529626 125.94912886 -152.10143391 124.21930248 -153.81827736 122.49017715 C-158.02673629 118.24863122 -162.22651637 113.9986373 -166.41983986 109.74213028 C-161.45936926 103.76596329 -156.10760748 98.26914455 -150.62589455 92.77118301 C-149.64599318 91.78500348 -148.66627729 90.79863964 -147.68673134 89.81210709 C-144.49193768 86.59644237 -141.29196414 83.38595774 -138.09171486 80.17572403 C-136.98430433 79.06426046 -135.87692588 77.95276494 -134.76957893 76.84123802 C-129.56734153 71.61999113 -124.36272449 66.40113078 -119.15515494 61.18520206 C-113.16663751 55.18690926 -107.18649736 49.18042367 -101.21331477 43.166861 C-96.57895946 38.50226575 -91.93687817 33.84544921 -87.28903127 29.19429737 C-84.52058452 26.42351049 -81.75547973 23.64957972 -78.99853706 20.867342 C-76.40371756 18.24909623 -73.79936304 15.64071207 -71.18770218 13.03926849 C-69.78740836 11.63969909 -68.39697677 10.23028347 -67.0069828 8.82048416 C-47.7185531 -10.31127867 -23.36153075 -14.18795008 0 0 Z " fill="#289D5A" transform="translate(284.4198398590088,8.257869720458984)"/>
<path d="M0 0 C3.41775537 1.47901666 5.66766679 3.40443549 8.30615234 6.015625 C9.56798843 7.25832153 9.56798843 7.25832153 10.85531616 8.52612305 C11.7564212 9.42500244 12.65752625 10.32388184 13.5859375 11.25 C14.5204776 12.1778833 15.4550177 13.1057666 16.4178772 14.06176758 C18.39674736 16.02867086 20.37144787 17.99965635 22.34375 19.97314453 C24.85057608 22.48017269 27.37081053 24.97321853 29.89494896 27.46279907 C31.85121521 29.39662292 33.79811605 31.33967845 35.74266434 33.28527832 C37.11127338 34.65042977 38.48891708 36.00650482 39.86679077 37.36230469 C50.8820493 48.45753663 57.33742614 60.2361414 57.5 76 C57.33700199 91.80498568 50.71769406 103.9251077 39.58935547 114.9440918 C38.51503265 116.03133797 38.51503265 116.03133797 37.41900635 117.14054871 C35.07840168 119.50362935 32.72360322 121.85191223 30.3671875 124.19921875 C28.7257354 125.84591032 27.08480315 127.49312024 25.44436646 129.14082336 C22.01981349 132.57574331 18.58794215 136.0031369 15.15087891 139.42553711 C10.73919674 143.81993821 6.3483406 148.23451854 1.9628582 152.65504742 C-1.41342493 156.05322802 -4.80125067 159.43970893 -8.19265366 162.82279396 C-9.81763649 164.446955 -11.43876073 166.07498591 -13.05597305 167.70688438 C-15.30827346 169.97651018 -17.57579935 172.22971623 -19.84814453 174.47924805 C-20.51629181 175.15908752 -21.18443909 175.838927 -21.87283325 176.53936768 C-22.49230835 177.14618881 -23.11178345 177.75300995 -23.75003052 178.3782196 C-24.28425188 178.91185466 -24.81847324 179.44548971 -25.36888313 179.99529552 C-27 181 -27 181 -29.08959293 180.75274086 C-31.49427375 179.80524567 -32.84315104 178.55162269 -34.68286133 176.73706055 C-35.73833916 175.70545052 -35.73833916 175.70545052 -36.81513977 174.65299988 C-37.56321396 173.90512711 -38.31128815 173.15725433 -39.08203125 172.38671875 C-39.85560471 171.62075882 -40.62917816 170.85479889 -41.42619324 170.06562805 C-43.05809718 168.44452726 -44.68604195 166.81943261 -46.31030273 165.19067383 C-48.80644473 162.69355763 -51.32314391 160.21852472 -53.84179688 157.74414062 C-55.42317392 156.1679688 -57.00329603 154.59053669 -58.58203125 153.01171875 C-59.34022659 152.26991867 -60.09842194 151.52811859 -60.8795929 150.76383972 C-61.56748398 150.06664322 -62.25537506 149.36944672 -62.96411133 148.65112305 C-63.57603836 148.04125046 -64.18796539 147.43137787 -64.81843567 146.80302429 C-66 145 -66 145 -65.73559189 143.07160282 C-64.47260103 139.51471827 -61.56208708 137.17434036 -58.91967773 134.57910156 C-57.96848557 133.62725227 -57.96848557 133.62725227 -56.99807739 132.65617371 C-54.90028206 130.56046839 -52.79206052 128.47558904 -50.68359375 126.390625 C-49.2270543 124.93968071 -47.77117578 123.48807267 -46.31593323 122.03582764 C-42.48380855 118.21515785 -38.64276013 114.40358258 -34.79980469 110.59381104 C-30.88000326 106.70469635 -26.96867956 102.80707635 -23.05664062 98.91015625 C-15.37938251 91.2650737 -7.69267333 83.62956898 0 76 C-0.92492967 74.89163826 -1.85417563 73.78687781 -2.78515625 72.68359375 C-3.30215088 72.06798584 -3.81914551 71.45237793 -4.35180664 70.81811523 C-5.94673927 69.05875169 -7.60017247 67.56266277 -9.4375 66.0625 C-12.81835305 63.27870709 -15.55055765 60.14087974 -18.37890625 56.80859375 C-20.37728168 54.57908092 -22.65922819 52.86061349 -25 51 C-26.55362906 49.28479352 -28.0334999 47.52197033 -29.5078125 45.73828125 C-31.15597934 43.76079523 -31.15597934 43.76079523 -33.875 41.25 C-36 39 -36 39 -36 36 C-34.63330078 34.27253723 -34.63330078 34.27253723 -32.6953125 32.35473633 C-31.97456543 31.63421585 -31.25381836 30.91369537 -30.51123047 30.17134094 C-29.72377441 29.39936874 -28.93631836 28.62739655 -28.125 27.83203125 C-27.32594238 27.03721848 -26.52688477 26.2424057 -25.70361328 25.42350769 C-23.14267606 22.87940146 -20.57151863 20.34590608 -18 17.8125 C-16.26494326 16.0924843 -14.53055926 14.3717897 -12.796875 12.65039062 C-8.53903311 8.42567671 -4.27274757 4.20963524 0 0 Z " fill="#289D5A" transform="translate(455,180)"/>
</svg>
