<?xml version="1.0" encoding="UTF-8"?>
<svg version="1.1" xmlns="http://www.w3.org/2000/svg" width="318" height="230">
<path d="M0 0 C1.98643494 1.18641663 1.98643494 1.18641663 3.75366211 2.88696289 C4.77398026 3.85147873 4.77398026 3.85147873 5.81491089 4.83547974 C6.5359903 5.54977142 7.2570697 6.26406311 8 7 C8.76321564 7.73918671 9.52643127 8.47837341 10.31277466 9.23995972 C12.87576281 11.74331133 15.41098759 14.2723367 17.94140625 16.80859375 C19.3311692 18.19692162 19.3311692 18.19692162 20.74900818 19.61329651 C22.69782361 21.56064855 24.64484737 23.50976913 26.59057617 25.46020508 C29.06363861 27.93896395 31.54116533 30.41320431 34.02006626 32.8861227 C36.41296201 35.27450145 38.80200318 37.6667208 41.19140625 40.05859375 C42.07075333 40.9359166 42.9501004 41.81323944 43.85609436 42.71714783 C47.50932329 46.38417542 51.10134258 50.05176173 54.46655273 53.98632812 C58.79116782 59.01470098 63.58062775 63.55209404 68.34375 68.16015625 C70.33342992 70.10466904 72.31884871 72.0535186 74.3046875 74.00195312 C77.41283275 77.05000903 80.52634781 80.09187261 83.66113281 83.11254883 C86.215344 85.57476591 88.74953767 88.05607555 91.2714386 90.55135918 C92.69529452 91.94962237 94.13970581 93.32685438 95.58435059 94.70362854 C96.87194275 95.98547279 96.87194275 95.98547279 98.18554688 97.29321289 C98.94830933 98.03519424 99.71107178 98.7771756 100.49694824 99.54164124 C102 102 102 102 102.12869263 105.36230469 C100.65127404 110.12391874 98.29157747 112.50543428 94.75537109 115.90991211 C94.10322632 116.56132675 93.45108154 117.21274139 92.7791748 117.88389587 C90.62436356 120.02944652 88.4492002 122.15306031 86.2734375 124.27734375 C84.76567857 125.77135869 83.25932037 127.26678844 81.75430298 128.76356506 C77.78817032 132.70114089 73.80481895 136.62082246 69.81713867 140.53656006 C64.99378039 145.27854858 60.1889711 150.0393124 55.38343239 154.79934788 C51.63981095 158.50737746 47.89295355 162.21189041 44.13510132 165.90550232 C43.09260727 166.93307144 43.09260727 166.93307144 42.02905273 167.98139954 C40.74660361 169.24547923 39.4621811 170.50756205 38.17520142 171.76702881 C34.46125687 175.43427997 30.96902828 179.23715013 27.56632423 183.19518471 C23.76765843 187.5722415 19.66815049 191.67518422 15.60253906 195.80249023 C14.52789713 196.8989066 13.45957671 198.0015524 12.39746094 199.11010742 C10.84186121 200.73270953 9.26735676 202.33464255 7.6875 203.93359375 C7.22061768 204.42830673 6.75373535 204.92301971 6.27270508 205.432724 C3.87205508 207.81881131 1.82054225 209.06707468 -1.35546875 210.25415039 C-5.3535295 209.97534672 -5.83265501 209.63255061 -8.63844299 207.06536865 C-9.69170871 206.10325517 -9.69170871 206.10325517 -10.76625252 205.12170506 C-14.71339698 201.37254521 -18.58473777 197.55392961 -22.42944336 193.69995117 C-23.78940933 192.34261368 -23.78940933 192.34261368 -25.17684937 190.95785522 C-27.63943393 188.49978902 -30.09889407 186.0386196 -32.55762553 183.57669997 C-35.13811358 180.9936638 -37.72105905 178.41308676 -40.30360413 175.83210754 C-44.63169103 171.50583325 -48.95767967 167.17746925 -53.2824707 162.84790039 C-58.28399404 157.84091551 -63.28913744 152.837571 -68.29613584 147.83606166 C-72.60300058 143.53372939 -76.90792061 139.22945853 -81.21120936 134.92354947 C-83.7782959 132.35490355 -86.34605436 129.78693911 -88.91557121 127.22072411 C-91.77201766 124.36769317 -94.62437438 121.51060785 -97.47631836 118.65307617 C-98.75650093 117.37592995 -98.75650093 117.37592995 -100.06254578 116.07298279 C-101.22104034 114.91025848 -101.22104034 114.91025848 -102.40293884 113.7240448 C-103.07744048 113.04916614 -103.75194212 112.37428747 -104.4468832 111.67895794 C-106.4187826 109.54728558 -106.95398888 108.2415584 -107.5 105.375 C-106.29159884 97.21829219 -96.28537699 90.1154035 -90.67163086 84.46289062 C-89.7634108 83.54488678 -88.85519073 82.62688293 -87.91944885 81.68106079 C-84.93840608 78.66898572 -81.95211649 75.66214491 -78.96484375 72.65625 C-78.45489467 72.1430036 -77.94494559 71.62975719 -77.4195435 71.10095787 C-72.60523082 66.25592736 -67.78889559 61.41291583 -62.96771908 56.57471466 C-56.82066516 50.4056862 -50.68394135 44.22675933 -44.56061643 38.03417444 C-40.2405271 33.66689308 -35.90904807 29.31111832 -31.56893641 24.9637351 C-28.98131923 22.37116327 -26.39900458 19.77377927 -23.82884026 17.16389465 C-20.96855534 14.25997438 -18.08510902 11.38018356 -15.19897461 8.50195312 C-13.92937393 7.20235153 -13.92937393 7.20235153 -12.63412476 5.87649536 C-11.45053123 4.70744156 -11.45053123 4.70744156 -10.24302673 3.51477051 C-9.5644609 2.83197273 -8.88589506 2.14917496 -8.18676662 1.44568634 C-5.30398417 -0.46014081 -3.38958964 -0.34835828 0 0 Z " fill="#2A004E" transform="translate(215,10)"/>
<path d="M0 0 C1.50041264 1.8857926 1.99817283 3.01190685 2.140625 5.43359375 C-0.32167922 10.66189607 -4.55168142 14.35575434 -8.61962891 18.34155273 C-9.40849991 19.12268433 -10.19737091 19.90381592 -11.01014709 20.70861816 C-12.72027901 22.40111975 -14.43260618 24.09140545 -16.14686966 25.77972221 C-18.8583652 28.45178907 -21.56226489 31.13132213 -24.26400757 33.81324768 C-31.94531242 41.43650874 -39.63604602 49.05013201 -47.34179688 56.64868164 C-52.0572194 61.29868066 -56.75940606 65.96181459 -61.45457077 70.63228035 C-63.2465315 72.40996616 -65.04315682 74.18296257 -66.84447098 75.95116997 C-69.36046454 78.42154654 -71.86068741 80.90691092 -74.35791016 83.39624023 C-75.10701157 84.12422318 -75.85611298 84.85220612 -76.62791443 85.60224915 C-79.44235185 88.43320609 -81.56496405 90.80506921 -83.26571655 94.43592834 C-82.59726506 99.36723283 -79.29685597 102.02717844 -75.859375 105.43359375 C-75.24000187 106.07155632 -74.62062874 106.70951889 -73.98248672 107.36681366 C-72.01315495 109.38192546 -70.01652421 111.36638305 -68.01220703 113.34667969 C-67.2617662 114.09244766 -66.51132538 114.83821564 -65.73814392 115.60658264 C-64.12307819 117.2112168 -62.50691241 118.81474438 -60.8897438 120.41725922 C-58.33180499 122.95304482 -55.77796561 125.49289201 -53.22531128 128.03399658 C-45.97247251 135.2533475 -38.71539952 142.4684005 -31.44824219 149.67333984 C-26.99232555 154.09168281 -22.5436924 158.5172465 -18.09969711 162.94757843 C-16.40632392 164.63288781 -14.71017584 166.31541373 -13.01123428 167.99510956 C-10.64399965 170.33596657 -8.28611366 172.68586766 -5.93017578 175.03808594 C-5.22476151 175.73114334 -4.51934723 176.42420074 -3.79255676 177.13825989 C-3.15340836 177.78008713 -2.51425995 178.42191437 -1.85574341 179.08319092 C-1.29793245 179.63693768 -0.7401215 180.19068443 -0.16540718 180.7612114 C1.32883314 182.67459545 1.79905617 184.04177697 2.140625 186.43359375 C1.59375 188.9921875 1.59375 188.9921875 0.140625 191.43359375 C-21.12629903 204.19975578 -49.90886541 206.2048683 -73.671875 200.74609375 C-102.60716275 193.46015736 -126.72001852 175.73679574 -142.171875 150.18359375 C-149.74409876 137.18451126 -155.10786664 122.28847208 -155.265625 107.16796875 C-155.28272522 105.8577475 -155.28272522 105.8577475 -155.3001709 104.52105713 C-155.31897375 102.67554482 -155.33210001 100.82996684 -155.33984375 98.984375 C-155.3590389 96.23178986 -155.42106809 93.48234084 -155.484375 90.73046875 C-155.68265004 74.23254107 -152.16649093 58.76849686 -143.984375 44.30859375 C-143.55584229 43.52492432 -143.12730957 42.74125488 -142.68579102 41.93383789 C-139.3121191 35.90884201 -135.49748221 30.55751061 -130.859375 25.43359375 C-129.85003906 24.21349609 -129.85003906 24.21349609 -128.8203125 22.96875 C-112.74944961 4.00513179 -88.500747 -8.6139838 -63.859375 -11.56640625 C-62.96863281 -11.68757812 -62.07789062 -11.80875 -61.16015625 -11.93359375 C-42.96851918 -13.96867457 -14.76383447 -12.43760005 0 0 Z " fill="#F04A00" transform="translate(154.859375,19.56640625)"/>
</svg>
